<?xml version="1.0" encoding="utf-8"?>
<!-- Generator: Adobe Illustrator 25.1.0, SVG Export Plug-In . SVG Version: 6.00 Build 0)  -->
<svg version="1.1" id="Layer_1" xmlns="http://www.w3.org/2000/svg" xmlns:xlink="http://www.w3.org/1999/xlink" x="0px" y="0px"
	 viewBox="0 0 1645.68 253.97" style="enable-background:new 0 0 1645.68 253.97;" xml:space="preserve">
<style type="text/css">
	.st0{fill:#020024;}
	.st1{fill:#FFFFFF;}
	.st2{fill:url(#SVGID_1_);}
	.st3{fill:#48CCB9;}
	.st4{fill:url(#SVGID_2_);}
	.st5{fill:url(#SVGID_3_);}
	.st6{fill:url(#SVGID_4_);}
	.st7{fill:url(#SVGID_5_);}
</style>
<g>
	<g>
		<g>
			<path class="st1" d="M1630.79,140.15c-17.45-17.4-34.7-34.59-52.38-52.21c22.68,0,44.98,0,67.26,0c0-8.82,0-17.16,0-25.63
				c-43.54,0-86.88,0-130.79,0c26.36,26.28,52.3,52.14,79.28,79.04c-26.5,26.19-52.6,52-78.97,78.07c11.21,0,36.06,0.05,36.06,0.05
				s51.89-51.57,76.69-76.24C1628.78,142.39,1629.56,141.48,1630.79,140.15z"/>
			<path class="st1" d="M552.43,79.69c-17.16,14.55-27.58,32.86-28.99,55.37c-1.9,30.4,10.83,54.12,36.43,72.26
				c-4.56,4.12-8.62,7.8-13.06,11.82c37.17,0,73.67,0,110.61,0c-4.32-4.15-8.31-7.97-12.55-12.04
				c44.99-30.71,44.56-86.01,17.71-116.91C631.4,54.31,581.54,55.02,552.43,79.69z M602.61,192.98
				c-29.01,0.28-52.79-22.98-52.92-51.77c-0.13-29.44,22.71-52.53,52.2-52.74c28.89-0.21,52.43,23.09,52.63,52.12
				C654.72,169.38,631.63,192.69,602.61,192.98z"/>
			<path class="st1" d="M738.28,83.97c-15.36,15.34-24.1,33.52-24.42,55.11c-0.43,28.78,12.28,51.16,36.3,67.95
				c-4.31,4.17-8.27,8.01-12.56,12.17c37.03,0,73.48,0,110.95,0c-4.78-4.31-8.94-8.06-13.24-11.94
				c45.2-29.62,46.47-88.84,13.83-121.52C817.15,53.71,766.8,55.5,738.28,83.97z M792.76,192.98
				c-29.05-0.03-52.59-23.43-52.53-52.23c0.06-29.13,23.19-52.21,52.4-52.29c28.91-0.08,52.54,23.4,52.57,52.24
				C845.23,169.65,821.8,193,792.76,192.98z"/>
			<path class="st1" d="M1362.34,89.51c17.41,0,34.64,0,52.49,0c0,9.14,0,122.46,0,130.86c8.96,0,17.53,0,26.38,0
				c0-8.76,0-121.98,0-130.81c17.51,0,34.74,0,52.09,0c0-8.9,0-17.42,0-25.95c-43.79,0-87.29,0-130.96,0
				C1362.34,72.26,1362.34,80.7,1362.34,89.51z"/>
			<polygon class="st1" points="1614.4,193.32 1588.6,219.21 1645.68,219.21 1645.68,193.15 			"/>
			<path class="st1" d="M464.73,126.59c-17.77,17.71-34.95,34.84-52.4,52.23c-1.25-1.16-2.15-1.94-3-2.79
				c-24.72-24.75-49.42-49.52-74.2-74.22c-1.77-1.76-2.43-3.51-2.41-5.95c0.12-10.63,0.05-21.27,0.05-33.1
				c26.78,26.64,52.85,52.57,79.05,78.64c26.18-26.09,52.13-51.96,78.62-78.36c0,52.68,0,104.61,0,156.78c-8.41,0-16.88,0-25.72,0
				C464.73,189,464.73,158.1,464.73,126.59z"/>
			<path class="st1" d="M1212.51,184.69c-19.54,28.98-54.3,41.62-88.04,32.33c-30-8.26-53.9-38.17-56.25-68.68
				c-3.01-39.03,21.01-68.45,48.75-79.76c31.42-12.81,65.48-3.5,84.99,17.04c-6,6.16-11.99,12.32-17.72,18.21
				c-5.39-4.19-9.85-7.29-15.33-9.77c-34.42-15.57-69.63,7.72-73.97,39.54c-4.02,29.55,14.93,55.41,44.54,59.61
				c16.81,2.38,31.78-2.39,44.03-14.36c2.24-2.19,4-2.53,6.81-1.53C1197.58,179.92,1204.94,182.2,1212.51,184.69z"/>
			<path class="st1" d="M904.35,62.86c0,0,14.56,12.85,21.39,18.99c35.83,32.17,71.64,64.36,107.51,96.48
				c1.76,1.57,2.49,3.29,2.49,5.51c-0.12,11.78-0.06,23.56-0.06,36.25c-35.21-31.54-69.87-62.58-105.1-94.15
				c0,31.67,0,62.55,0,93.95c-4.71,0-21.49,0.02-23.35,0.02c-1.86,0-2.9-1.4-2.9-2.93C904.33,215.61,904.35,62.86,904.35,62.86z"/>
			<path class="st1" d="M1009.3,62.85c0,0,17.35,0,26.11,0c0,25.89,0,78.15,0,78.15s-17.01-14.97-24.37-21.71
				c-0.89-0.81-1.72-2.22-1.73-3.36C1009.22,98.58,1009.3,62.85,1009.3,62.85z"/>
			<path class="st1" d="M1147.02,154.64c0-8.85,0-17.21,0-25.82c21.58,0,43.01,0,64.89,0c-0.65,0.84-1.08,1.54-1.65,2.11
				c-7.41,7.36-14.83,14.72-22.3,22.03c-0.75,0.74-1.85,1.6-2.79,1.61C1172.57,154.67,1159.97,154.64,1147.02,154.64z"/>
		</g>
		<g>
			<path class="st1" d="M1301.6,62.28c-15.73,31.38-78.74,157.13-78.74,157.13s17.66,0,26.18,0c2.11,0,3.61-0.67,4.67-2.82
				c0.87-1.77,47.9-95.4,47.9-95.4c0.82,1.62,47.02,93.63,47.89,95.4c1.05,2.14,2.55,2.82,4.67,2.82c8.52,0,26.18,0,26.18,0
				S1301.6,62.28,1301.6,62.28z"/>
		</g>
	</g>
	<path class="st1" d="M262.84,118.34C256.01,51.66,201.01,1.71,133.42,0.01C133.15,0,132.49,0,131.82,0c-0.69,0-1.39,0-1.66,0.01
		C62.56,1.71,7.56,51.66,0.73,118.34c-6.91,67.43,36.51,118.77,81.62,135.62c-1.3-1.89-2.19-3.29-3.16-4.62
		c-24.95-33.94-10.6-83.69,28.65-98.89c5.68-2.2,11.28-2.98,15.65-1.21c4.86,1.96,8.29,6.71,8.29,6.71c0.1-0.14,3.43-4.74,8.29-6.71
		c4.38-1.77,9.97-0.99,15.65,1.21c39.26,15.21,53.61,64.95,28.65,98.89c-0.98,1.33-1.87,2.72-3.16,4.62
		C226.33,237.11,269.75,185.78,262.84,118.34z M131.88,145.42c-10.71,0-24.1,2.98-24.1,2.98l24.29-11.41l24.13,11.41
		C156.21,148.4,142.59,145.42,131.88,145.42z"/>
</g>
</svg>
