<svg width="3923" height="1879" viewBox="0 0 3923 1879" fill="none" xmlns="http://www.w3.org/2000/svg">
<path d="M68.7983 726.633C68.7983 762.633 32.405 1457.13 0 1461.13V1774.5H3923V1255.13C3896.25 1236.3 3836.25 1198.63 3810.33 1198.63C3777.93 1198.63 3798.37 1021.13 3761.97 1021.13C3725.58 1021.13 3786.4 412.133 3761.97 404.133C3737.54 396.133 3746.02 472.633 3717.6 468.633C3689.19 464.633 3705.64 -19.8674 3669.74 0.632629C3633.85 21.1326 3653.29 299.133 3621.38 299.133C3589.48 299.133 3621.38 165.633 3621.38 97.1327C3621.38 28.6327 3331.73 48.6327 3367.63 117.633C3396.34 172.833 3379.59 425.633 3367.63 545.133C3370.29 510.133 3366.83 440.133 3331.73 440.133C3287.86 440.133 3367.63 940.633 3331.73 952.633C3295.84 964.633 3315.28 823.633 3283.38 823.633C3251.47 823.633 3279.03 1461.13 3222.55 1461.13C2854.63 1461.13 2649.73 1541.63 2088.38 1541.63C1538.12 1541.63 1271.77 1545.63 1046.43 1461.13C959.577 1428.56 962.919 1200.76 949.716 1198.63C921.798 1194.13 957.693 876.133 949.716 876.133C941.739 876.133 623.672 811.633 623.672 876.133C623.672 940.633 559.36 1255.13 543.407 1255.13C527.454 1255.13 539.419 1029.63 499.037 1021.13C458.655 1012.63 499.037 726.633 499.037 698.633C499.037 670.632 390.356 638.133 378.391 613.633C366.426 589.133 358.449 408.133 349.974 367.633C341.499 327.133 225.339 323.133 225.339 367.633C225.339 412.133 201.41 504.633 176.981 504.633C152.553 504.633 181.468 751.133 176.981 726.633C172.494 702.133 68.7983 690.633 68.7983 726.633Z" fill="url(#paint0_linear_868_30)"/>
<path d="M149.063 1522.63C735.842 1499.6 1204.56 1741.13 1856.06 1741.13C2322.11 1741.13 3049.73 1595.71 3595.96 1565.67C3612.33 1539.2 3422.24 1576.47 3414.5 1514.5C3382.71 1514.5 3518.68 1391.63 3512.7 1372.63C3507.9 1357.38 3520.68 1347.63 3528.66 1370.63C3534.21 1386.66 3573.91 1401.63 3595.96 1406.63C3587.58 1340.75 3579.87 1272.11 3595.96 1248C3614.31 1220.5 3620.39 1235.63 3630.36 1262.13V1361.13C3672.73 1355.63 3697.39 1335.63 3697.9 1300.63C3698.31 1273.27 3721.21 1282 3716.85 1296.13C3705.05 1334.34 3694.17 1366.53 3630.36 1378.13V1564.04C3716.39 1561.51 3849.46 1560.36 3923 1566V1859H0V1584.63C0 1584.63 6.78857 1528.22 149.063 1522.63Z" fill="#DB8D61"/>
<path d="M2115.56 1807.2C1545.24 1807.2 696.047 1734.75 0 1807.2V1878.5L3923 1878V1807C3343.04 1807 3076.01 1807.2 2115.56 1807.2Z" fill="#935151"/>
<defs>
<linearGradient id="paint0_linear_868_30" x1="1961.5" y1="0" x2="1961.5" y2="2252.13" gradientUnits="userSpaceOnUse">
<stop stop-color="#F3A46A"/>
<stop offset="0.4375" stop-color="#EABC9B"/>
<stop offset="1" stop-color="#EFD8C3"/>
</linearGradient>
</defs>
</svg>
