<svg width="3932" height="2556" viewBox="0 0 3932 2556" fill="none" xmlns="http://www.w3.org/2000/svg">
<path d="M68 727C68 763 31.5 1457.5 -1 1461.5V2252.5H3933.5V1255.5C3906.67 1236.67 3846.5 1199 3820.5 1199C3788 1199 3808.5 1021.5 3772 1021.5C3735.5 1021.5 3796.5 412.5 3772 404.5C3747.5 396.5 3756 473 3727.5 469C3699 465 3715.5 -19.5002 3679.5 0.999817C3643.5 21.4998 3663 299.5 3631 299.5C3599 299.5 3631 166 3631 97.4998C3631 28.9998 3340.5 48.9998 3376.5 118C3405.3 173.2 3388.5 426 3376.5 545.5C3379.17 510.5 3375.7 440.5 3340.5 440.5C3296.5 440.5 3376.5 941 3340.5 953C3304.5 965 3324 824 3292 824C3260 824 3287.64 1461.5 3231 1461.5C2862 1461.5 2656.5 1542 2093.5 1542C1541.63 1542 1274.5 1546 1048.5 1461.5C961.39 1428.93 964.742 1201.13 951.5 1199C923.5 1194.5 959.5 876.5 951.5 876.5C943.5 876.5 624.5 812 624.5 876.5C624.5 941 560 1255.5 544 1255.5C528 1255.5 540 1030 499.5 1021.5C459 1013 499.5 727 499.5 699C499.5 671 390.5 638.5 378.5 614C366.5 589.5 358.5 408.5 350 368C341.5 327.5 225 323.5 225 368C225 412.5 201 505 176.5 505C152 505 181 751.5 176.5 727C172 702.5 68 691 68 727Z" fill="url(#paint0_linear_868_30)"/>
<path d="M148.5 1523C736.999 1499.97 1207.09 1741.5 1860.5 1741.5C2327.91 1741.5 3057.67 1596.07 3605.5 1566.04C3621.92 1539.57 3615.26 1479.97 3607.5 1418C3575.61 1418 3528 1392 3522 1373C3517.18 1357.74 3530 1348 3538 1371C3543.58 1387.03 3583.39 1402 3605.5 1407C3597.1 1341.12 3589.37 1272.47 3605.5 1248.37C3623.9 1220.87 3630 1236 3640 1262.5V1361.5C3682.5 1356 3707.23 1336 3707.74 1301C3708.15 1273.63 3731.12 1282.37 3726.74 1296.5C3714.91 1334.71 3704 1366.9 3640 1378.5V1564.41C3726.28 1561.88 3859.24 1560.95 3933 1566.59V2247H1V1585C1 1585 5.80888 1528.58 148.5 1523Z" fill="#DB8D61"/>
<path d="M2120.34 1848.66C1549 1848.66 698.29 1776.22 1 1848.66V2556H3929V1848.66L2120.34 1848.66Z" fill="#935151"/>
<defs>
<linearGradient id="paint0_linear_868_30" x1="1966.25" y1="0.367187" x2="1966.25" y2="2252.5" gradientUnits="userSpaceOnUse">
<stop stop-color="#F3A46A"/>
<stop offset="0.4375" stop-color="#EABC9B"/>
<stop offset="1" stop-color="#EABC9B" stop-opacity="0"/>
</linearGradient>
</defs>
</svg>
