<svg width="70" height="70" viewBox="0 0 70 70" fill="none" xmlns="http://www.w3.org/2000/svg">
<path d="M55.2156 16.4543C51.4977 14.7483 47.5107 13.4914 43.3421 12.7716C43.2662 12.7577 43.1903 12.7924 43.1512 12.8618C42.6385 13.7738 42.0705 14.9636 41.6728 15.8987C37.1891 15.2275 32.7285 15.2275 28.3369 15.8987C27.939 14.9428 27.3504 13.7738 26.8354 12.8618C26.7963 12.7947 26.7204 12.76 26.6445 12.7716C22.4782 13.4891 18.4913 14.746 14.771 16.4543C14.7388 16.4682 14.7112 16.4913 14.6928 16.5214C7.13042 27.8195 5.05876 38.8399 6.07505 49.7237C6.07965 49.7769 6.10954 49.8279 6.15092 49.8602C11.1404 53.5244 15.9736 55.7488 20.717 57.2233C20.7929 57.2465 20.8733 57.2187 20.9216 57.1562C22.0437 55.6239 23.0439 54.0082 23.9015 52.3092C23.9521 52.2097 23.9038 52.0916 23.8003 52.0522C22.2138 51.4504 20.7032 50.7167 19.25 49.8834C19.1351 49.8163 19.1259 49.6519 19.2316 49.5732C19.5374 49.344 19.8433 49.1056 20.1353 48.8649C20.1881 48.8209 20.2617 48.8116 20.3238 48.8394C29.8704 53.198 40.2058 53.198 49.6398 48.8394C49.7019 48.8093 49.7755 48.8186 49.8306 48.8626C50.1227 49.1033 50.4285 49.344 50.7366 49.5732C50.8423 49.6519 50.8354 49.8163 50.7205 49.8834C49.2673 50.7328 47.7567 51.4504 46.1679 52.0499C46.0644 52.0893 46.0184 52.2097 46.069 52.3092C46.945 54.0058 47.9452 55.6215 49.0466 57.1539C49.0926 57.2187 49.1753 57.2465 49.2512 57.2233C54.0177 55.7488 58.8508 53.5244 63.8402 49.8602C63.884 49.8279 63.9116 49.7792 63.9162 49.726C65.1325 37.1431 61.8789 26.2131 55.2915 16.5237C55.2754 16.4913 55.2478 16.4682 55.2156 16.4543ZM25.3271 43.0966C22.4529 43.0966 20.0847 40.4579 20.0847 37.2173C20.0847 33.9766 22.407 31.3379 25.3271 31.3379C28.2701 31.3379 30.6155 33.9998 30.5695 37.2173C30.5695 40.4579 28.2471 43.0966 25.3271 43.0966ZM44.7101 43.0966C41.836 43.0966 39.4678 40.4579 39.4678 37.2173C39.4678 33.9766 41.79 31.3379 44.7101 31.3379C47.6532 31.3379 49.9985 33.9998 49.9526 37.2173C49.9526 40.4579 47.6532 43.0966 44.7101 43.0966Z" fill="black"/>
</svg>
