<svg width="70" height="70" viewBox="0 0 70 70" fill="none" xmlns="http://www.w3.org/2000/svg">
<path fill-rule="evenodd" clip-rule="evenodd" d="M35 8.75C27.8705 8.75 26.978 8.77975 24.178 8.9075C21.3833 9.03525 19.474 9.47975 17.8045 10.129C16.0545 10.787 14.4672 11.8195 13.1547 13.1565C11.8199 14.4675 10.7868 16.0536 10.1272 17.8045C9.4815 19.474 9.03525 21.385 8.9075 24.1798C8.7815 26.978 8.75 27.8687 8.75 35C8.75 42.1312 8.77975 43.022 8.9075 45.822C9.03525 48.6167 9.47975 50.526 10.129 52.1955C10.787 53.9455 11.8195 55.5327 13.1565 56.8452C14.4675 58.1801 16.0536 59.2132 17.8045 59.8727C19.474 60.5202 21.3833 60.9647 24.178 61.0925C26.978 61.2202 27.8705 61.25 35 61.25C42.1295 61.25 43.022 61.2202 45.822 61.0925C48.6167 60.9647 50.526 60.5202 52.1955 59.871C53.9455 59.213 55.5327 58.1805 56.8452 56.8435C58.1801 55.5325 59.2132 53.9464 59.8727 52.1955C60.5202 50.526 60.9647 48.6167 61.0925 45.822C61.2202 43.022 61.25 42.1295 61.25 35C61.25 27.8705 61.2202 26.978 61.0925 24.178C60.9647 21.3833 60.5202 19.474 59.871 17.8045C59.212 16.0529 58.1788 14.4661 56.8435 13.1547C55.5325 11.8199 53.9464 10.7868 52.1955 10.1272C50.526 9.4815 48.615 9.03525 45.8203 8.9075C43.022 8.7815 42.1312 8.75 35 8.75ZM35 13.4803C42.0088 13.4803 42.84 13.5065 45.6085 13.6325C48.167 13.7498 49.5565 14.175 50.4823 14.5373C51.7072 15.0115 52.5823 15.582 53.501 16.499C54.4198 17.4178 54.9885 18.2927 55.4628 19.5177C55.8232 20.4435 56.2502 21.833 56.3675 24.3915C56.4935 27.16 56.5198 27.9912 56.5198 35C56.5198 42.0088 56.4935 42.84 56.3675 45.6085C56.2502 48.167 55.825 49.5565 55.4628 50.4823C55.0426 51.6225 54.3723 52.654 53.501 53.501C52.6541 54.3725 51.6226 55.0428 50.4823 55.4628C49.5565 55.8232 48.167 56.2502 45.6085 56.3675C42.84 56.4935 42.0105 56.5198 35 56.5198C27.9895 56.5198 27.16 56.4935 24.3915 56.3675C21.833 56.2502 20.4435 55.825 19.5177 55.4628C18.3775 55.0426 17.346 54.3723 16.499 53.501C15.6278 52.6539 14.9575 51.6224 14.5373 50.4823C14.1767 49.5565 13.7498 48.167 13.6325 45.6085C13.5065 42.84 13.4803 42.0088 13.4803 35C13.4803 27.9912 13.5065 27.16 13.6325 24.3915C13.7498 21.833 14.175 20.4435 14.5373 19.5177C15.0115 18.2927 15.582 17.4178 16.499 16.499C17.3459 15.6276 18.3775 14.9572 19.5177 14.5373C20.4435 14.1767 21.833 13.7498 24.3915 13.6325C27.16 13.5065 27.9912 13.4803 35 13.4803Z" fill="black"/>
<path fill-rule="evenodd" clip-rule="evenodd" d="M35.0003 43.7589C33.8501 43.7589 32.7111 43.5323 31.6485 43.0921C30.5858 42.652 29.6203 42.0068 28.8069 41.1935C27.9936 40.3802 27.3485 39.4146 26.9083 38.3519C26.4681 37.2893 26.2416 36.1503 26.2416 35.0001C26.2416 33.8499 26.4681 32.7109 26.9083 31.6483C27.3485 30.5856 27.9936 29.6201 28.8069 28.8067C29.6203 27.9934 30.5858 27.3483 31.6485 26.9081C32.7111 26.4679 33.8501 26.2414 35.0003 26.2414C37.3233 26.2414 39.5511 27.1642 41.1937 28.8067C42.8363 30.4493 43.7591 32.6772 43.7591 35.0001C43.7591 37.3231 42.8363 39.5509 41.1937 41.1935C39.5511 42.8361 37.3233 43.7589 35.0003 43.7589ZM35.0003 21.5076C31.4219 21.5076 27.99 22.9291 25.4597 25.4595C22.9293 27.9898 21.5078 31.4217 21.5078 35.0001C21.5078 38.5786 22.9293 42.0104 25.4597 44.5408C27.99 47.0711 31.4219 48.4926 35.0003 48.4926C38.5787 48.4926 42.0106 47.0711 44.5409 44.5408C47.0713 42.0104 48.4928 38.5786 48.4928 35.0001C48.4928 31.4217 47.0713 27.9898 44.5409 25.4595C42.0106 22.9291 38.5787 21.5076 35.0003 21.5076ZM52.4181 21.2626C52.4181 22.1085 52.082 22.9197 51.4839 23.5178C50.8858 24.116 50.0746 24.452 49.2287 24.452C48.3828 24.452 47.5716 24.116 46.9735 23.5178C46.3753 22.9197 46.0393 22.1085 46.0393 21.2626C46.0393 20.4167 46.3753 19.6055 46.9735 19.0074C47.5716 18.4093 48.3828 18.0732 49.2287 18.0732C50.0746 18.0732 50.8858 18.4093 51.4839 19.0074C52.082 19.6055 52.4181 20.4167 52.4181 21.2626Z" fill="black"/>
</svg>
