<svg width="58" height="58" viewBox="0 0 58 58" fill="none" xmlns="http://www.w3.org/2000/svg">
<path fill-rule="evenodd" clip-rule="evenodd" d="M58 29C58 45.0154 45.0154 58 29 58C12.9846 58 0 45.0154 0 29C0 12.9847 12.9846 0 29 0C45.0188 0 58 12.9847 58 29ZM14.3074 29.9744L14.4326 29.7778L21.9766 17.9761C22.0867 17.8032 22.3459 17.8211 22.4294 18.0088C23.6897 20.8334 24.7773 24.3462 24.2678 26.5331C24.0503 27.4329 23.4543 28.6516 22.7839 29.7778C22.7214 29.8962 22.6545 30.013 22.5837 30.1271C22.5566 30.171 22.5291 30.2145 22.501 30.2575C22.4534 30.329 22.3728 30.3707 22.2864 30.3707H14.5278C14.3193 30.3707 14.1973 30.1443 14.3074 29.9744ZM47.9338 34.0355V32.1674C47.9338 31.9945 47.7668 31.8694 47.603 31.9171L38.7808 34.4675C38.7332 34.4795 38.6914 34.5063 38.6587 34.542C37.7134 35.5863 36.9099 36.287 36.6978 36.4721L36.6833 36.4846C36.135 36.9494 35.4558 37.2027 34.7407 37.2027H31.5466V33.9461H34.0852C34.1506 33.9461 34.2134 33.9223 34.261 33.8806L34.5886 33.5796C34.7288 33.4515 34.8955 33.2966 35.0952 33.0969L35.147 33.0453C35.2517 32.9409 35.3638 32.8292 35.4736 32.7066C35.6047 32.5785 35.7329 32.4355 35.8521 32.2955C35.9534 32.1864 36.0527 32.075 36.1519 31.9608C36.2478 31.8506 36.3438 31.7378 36.4419 31.6221C36.585 31.4672 36.7161 31.2914 36.8442 31.1156C36.9871 30.9487 37.1272 30.7611 37.2583 30.5823C37.3181 30.4945 37.3826 30.4056 37.448 30.314C37.4871 30.2594 37.5264 30.204 37.5652 30.1472C37.6606 30.0042 37.7559 29.8523 37.8362 29.7093C38.0867 29.322 38.2981 28.9078 38.4771 28.4937C38.5322 28.3741 38.5801 28.2503 38.6248 28.1267C38.6548 28.0439 38.6836 27.9612 38.7124 27.8799C38.7839 27.6683 38.8433 27.4687 38.8882 27.2572C38.9954 26.7596 39.0193 26.265 38.9714 25.7704C38.9595 25.6155 38.9478 25.4635 38.9119 25.3205V25.2967C38.8999 25.1954 38.8762 25.0822 38.8433 24.9779C38.7361 24.4952 38.5693 24.0125 38.3577 23.5388C38.2861 23.363 38.2029 23.1842 38.1223 23.0203C37.9316 22.6658 37.7319 22.3112 37.5056 21.9686C37.46 21.8961 37.4097 21.8227 37.3596 21.7494C37.321 21.6932 37.2827 21.6369 37.2463 21.5813C37.103 21.3601 36.9417 21.1469 36.7854 20.9401L36.6802 20.8007C36.5374 20.6129 36.3733 20.4252 36.2185 20.2345C36.0635 20.0468 35.9116 19.868 35.7566 19.6923C35.2024 19.0666 34.6216 18.5005 34.103 18.0178C34.0078 17.9225 33.9033 17.8271 33.7961 17.7347C33.3938 17.3683 33.0273 17.0495 32.7205 16.8021C32.6458 16.7446 32.5771 16.6877 32.5127 16.6335C32.4438 16.5755 32.3799 16.5207 32.3184 16.4714C32.1663 16.3583 32.0471 16.2658 31.9639 16.2033C31.9399 16.1854 31.9131 16.1735 31.8862 16.1645L31.5466 16.0692V13.2566C31.5466 12.7978 31.3618 12.3866 31.0669 12.0857C30.772 11.7847 30.3608 11.6 29.908 11.6C29.0022 11.6 28.2693 12.3419 28.2693 13.2566V15.1515L28.0994 15.1038L27.6377 14.9728L27.2175 14.8566C27.2153 14.8566 27.2129 14.8549 27.2095 14.854L27.2056 14.8536H27.1965L24.0085 13.9895C23.8687 13.9508 23.7493 14.1028 23.8208 14.2309L24.3303 15.1724C24.3779 15.2916 24.4465 15.4107 24.5061 15.5388C24.5576 15.6419 24.6091 15.7483 24.6599 15.856C24.6914 15.9228 24.7227 15.99 24.7534 16.0573C24.825 16.2122 24.8965 16.3642 24.98 16.531C25.1438 16.8975 25.3225 17.2848 25.4983 17.7109C25.6174 17.994 25.7366 18.277 25.8408 18.572C26.127 19.3139 26.3982 20.1064 26.6335 20.9198C26.6919 21.101 26.7385 21.2763 26.7856 21.4539C26.8059 21.5305 26.8264 21.6075 26.8479 21.6856L26.8809 21.8286C26.9761 22.207 27.0596 22.5824 27.1191 22.9608C27.1667 23.22 27.2114 23.4673 27.2354 23.7176C27.271 24.0006 27.3069 24.2836 27.3188 24.5667C27.3425 24.8259 27.3545 25.0971 27.3545 25.3562C27.3545 26.0177 27.2949 26.6553 27.1548 27.2572C27.1072 27.433 27.0596 27.6207 27 27.7995C26.9558 27.9562 26.8987 28.113 26.8389 28.2759C26.8181 28.3327 26.7971 28.3903 26.7764 28.4489C26.7288 28.5771 26.6812 28.7082 26.6216 28.8363C26.3267 29.5454 25.9602 30.2516 25.5818 30.913C25.0276 31.8932 24.4705 32.7543 24.0801 33.3085C24.0264 33.3889 23.9758 33.4605 23.9312 33.529C23.8088 33.7018 23.9341 33.9461 24.1455 33.9461H28.2693V37.2027H24.0979C22.9778 37.2027 21.9409 36.568 21.4402 35.5521C21.1809 35.0426 21.0796 34.4824 21.1394 33.9342C21.1543 33.7703 21.032 33.6154 20.8652 33.6154H12.4392C12.2961 33.6154 12.1799 33.7316 12.1799 33.8746V34.0474C12.1799 39.4224 16.521 43.7784 21.8782 43.7784H36.9932C39.8264 43.7784 41.4353 41.1965 43.0166 38.6587C43.4573 37.9514 43.896 37.2474 44.3584 36.6038C45.1897 35.4478 47.189 34.5301 47.7729 34.2798C47.8682 34.2381 47.9338 34.1427 47.9338 34.0355Z" fill="black"/>
</svg>
