<svg width="1177" height="2436" viewBox="0 0 1177 2436" fill="none" xmlns="http://www.w3.org/2000/svg">
<path fill-rule="evenodd" clip-rule="evenodd" d="M994.058 0C1005.8 5.47369 1018.05 10.3552 1030.75 14.5792C1079.78 30.8765 1130.96 37.205 1182.62 39.0653V43.3529C1130.43 41.496 1078.66 35.0637 1028.94 18.544C1013.24 13.3162 998.239 7.08468 984.013 0H994.058Z" fill="#EABC9B"/>
<path fill-rule="evenodd" clip-rule="evenodd" d="M819.115 0C870.742 48.97 940.003 86.8224 1019.16 107.553C1072.36 121.484 1127.28 128.266 1182.62 131.537V135.713C1126.85 132.442 1071.42 125.599 1017.69 111.529C936.174 90.1715 865.009 50.8771 812.488 0H819.115Z" fill="#EABC9B"/>
<path fill-rule="evenodd" clip-rule="evenodd" d="M703.46 0C704.905 1.70727 706.277 3.4162 707.747 5.12347C786.603 96.6463 902.805 160.375 1043.75 189.419C1089.72 198.88 1136.89 205.515 1182.62 210.68V214.88C1136.53 209.713 1088.95 203.021 1042.57 193.477C900.44 164.195 783.277 99.9011 703.721 7.55679C701.556 5.04609 699.483 2.5321 697.385 0H703.46Z" fill="#EABC9B"/>
<path opacity="0.7" d="M1089.96 2412.28C1116.01 2419.21 1153.21 2427.03 1179.09 2434.28C1181.98 2435.09 1185 2435.25 1188.12 2434.93C1197.77 2433.94 1194.68 2418.4 1184.97 2418.4C1184.2 2418.4 1183.44 2418.3 1182.7 2418.09C1181.5 2417.75 1180.29 2417.41 1179.09 2417.08C1153.28 2409.83 1126.61 2402.34 1100.73 2395.45C973.028 2361.52 828.419 2317.73 728.001 2226.84C572.053 2037.39 536.954 1954.28 528.371 1807.21C525.374 1755.85 533.361 1704.09 552.984 1656.53C559.6 1640.49 566.766 1624.74 574.797 1609.58C596.266 1569.05 633.981 1547.36 700.904 1537.01C764.375 1527.19 831.728 1515.27 895.926 1487.62C995.55 1444.71 1070.64 1367.87 1125.44 1252.75C1145.85 1209.88 1164.64 1165.95 1182.62 1122.25V1070.63C1159.03 1129.15 1134.45 1188.89 1107 1246.55C1053.31 1359.3 983.356 1431.19 886.865 1472.77C825.079 1499.37 759.337 1510.97 697.311 1520.55C648.057 1528.19 587.57 1544.42 556.625 1602.78C547.731 1619.59 539.904 1637.01 532.723 1654.67C514.115 1700.44 505.614 1749.95 508.182 1799.29C514.129 1913.54 545.926 2055.5 715.959 2240.28C804.358 2336.34 963.632 2378.69 1088.7 2411.95L1089.96 2412.28Z" fill="#EAC4A2"/>
<path fill-rule="evenodd" clip-rule="evenodd" d="M1182.62 307.24C1171.95 304.724 1161.31 302.243 1150.81 299.808C1038.84 273.729 923.067 246.765 822.323 194.63C726.998 145.277 654.505 77.7481 584.54 0H590.778C659.73 76.3366 731.309 142.598 824.921 191.064C925.065 242.897 1040.5 269.778 1152.13 295.776C1162.17 298.112 1172.39 300.493 1182.62 302.892V307.24Z" fill="#EABC9B"/>
<path fill-rule="evenodd" clip-rule="evenodd" d="M14.7667 99.9955C24.5217 65.7426 39.9838 31.9962 59.922 0H65.4811C45.1819 32.2569 29.4595 66.3497 19.5861 100.98C-9.91577 204.42 4.82629 314.747 67.3593 458.697C122.818 586.323 185.959 699.709 255.049 795.716C311.808 874.589 381.927 938.44 456.17 1006.04C475.365 1023.53 495.23 1041.62 514.667 1059.84C534.842 1078.73 554.93 1098.24 574.362 1117.11C601.549 1143.53 629.676 1170.81 658.379 1196.85C663.942 1201.86 669.604 1207.14 675.404 1212.53C712.08 1246.6 753.645 1285.2 802.916 1299.82C816.397 1303.81 830.173 1305.86 843.897 1305.86H843.923C941.887 1305.82 1022.03 1203.17 1051.93 1159.03C1105.85 1079.45 1145.63 992.908 1182.62 907.633V919.773C1146.86 1001.73 1108.09 1084.57 1056.25 1161.11C1018.56 1216.72 940.852 1310.01 843.923 1310.01H843.897C829.62 1310.01 815.269 1307.92 801.276 1303.77C750.801 1288.79 708.806 1249.77 671.744 1215.33C665.939 1209.95 660.283 1204.7 654.744 1199.69C625.968 1173.61 597.841 1146.29 570.603 1119.87C551.196 1101 531.114 1081.51 510.978 1062.62C491.571 1044.44 471.706 1026.36 452.513 1008.88C378.1 941.12 307.809 877.124 250.811 797.89C181.555 701.642 118.271 588.013 62.6898 460.128C-0.184448 315.373 -14.9719 204.301 14.7667 99.9955Z" fill="#EABC9B"/>
<path fill-rule="evenodd" clip-rule="evenodd" d="M1182.62 442.953C1179.24 439.49 1175.63 436.089 1171.67 432.785C1124.52 393.525 1063.02 369.75 1003.55 346.758C995.323 343.554 987.071 340.376 978.892 337.154C875.985 296.683 742.61 238.802 623.591 149.811C603.108 134.489 583.007 117.377 561.756 99.2562C518.589 62.5126 474.483 24.9674 424.299 0H433.879C481.652 25.1274 523.896 61.0826 565.274 96.3369C586.482 114.397 606.533 131.451 626.895 146.691C745.456 235.338 878.422 293.019 981.013 333.369C989.17 336.59 997.398 339.769 1005.65 342.952C1065.51 366.105 1127.39 390.043 1175.17 429.825C1177.79 432.004 1180.26 434.238 1182.62 436.51V442.953Z" fill="#EABC9B"/>
<path fill-rule="evenodd" clip-rule="evenodd" d="M89.9028 120.94C108.2 75.4525 143.615 29.7422 191.874 0H200.506C150.195 29.0164 113.334 75.7528 94.6049 122.268C61.1195 205.416 65.9639 302.17 109.381 418.077C149.81 525.927 213.33 640.345 293.124 748.941C363.394 844.593 452.444 918.977 564.522 1001.24C569.508 1004.9 574.667 1008.73 580.018 1012.68C651.498 1065.59 749.397 1138.08 844.785 1138.08H844.811C859.903 1138.08 874.605 1136.19 888.494 1132.48C983.474 1107.07 1038.2 1026.95 1083.2 944.13C1126.04 865.291 1156.2 781.867 1182.62 698.78V714.811C1157.29 793.101 1128.14 871.473 1087.71 945.878C1042.25 1029.55 986.828 1110.56 889.989 1136.47C875.618 1140.3 860.432 1142.25 844.811 1142.25C844.785 1142.25 844.785 1142.25 844.785 1142.25C747.515 1142.25 648.798 1069.18 576.74 1015.81C571.388 1011.87 566.23 1008.04 561.267 1004.4C448.83 921.877 359.488 847.229 288.903 751.14C208.893 642.257 145.179 527.521 104.655 419.327C60.8787 302.552 56.056 204.929 89.9028 120.94Z" fill="#EABC9B"/>
<path fill-rule="evenodd" clip-rule="evenodd" d="M319.336 112.076C376.469 112.076 444.402 137.675 521.245 188.15C635.73 263.358 757.618 328.526 872.272 387.753C879.165 391.316 886.154 394.88 893.161 398.441C938.371 421.404 985.093 445.173 1020.13 478.319C1069.29 524.849 1081.55 585.186 1083.17 627.611C1083.6 639.339 1083.48 652.163 1082.76 666.811C1062.18 775.912 1030.1 887.205 935.815 960.5C901.91 986.826 862.123 1000.19 817.569 1000.19H817.546C735.445 1000.19 651.108 955.752 594.788 922.322C406.036 810.308 261.669 629.419 188.293 413.032C162.558 337.119 136.392 228.159 205.981 158.588C236.876 127.733 274.999 112.076 319.336 112.076ZM817.547 1004.35H817.571C863.43 1004.35 904.346 990.63 939.168 963.558C1034.59 889.397 1066.95 777.301 1087.7 667.215C1088.45 652.22 1088.57 639.299 1088.13 627.465C1086.47 584.356 1073.99 522.998 1023.84 475.541C988.326 441.933 941.241 418.002 895.719 394.858C888.731 391.297 881.767 387.753 874.873 384.193C760.339 325.022 638.6 259.936 524.283 184.853C446.569 133.792 377.606 107.891 319.338 107.891C273.481 107.891 234.059 124.053 202.178 155.889C131.067 226.993 157.476 337.341 183.524 414.177C257.189 631.472 402.232 813.163 591.924 925.742C648.77 959.494 734.051 1004.35 817.547 1004.35Z" fill="#EABC9B"/>
<path opacity="0.8" fill-rule="evenodd" clip-rule="evenodd" d="M962.781 708.153C953.237 757.275 925.432 843.272 846.151 871.811C824.292 879.68 800.801 883.665 776.293 883.665C709.882 883.665 634.168 855.004 551.248 798.455C416.954 706.903 312.659 548.999 285.506 396.167C276.998 348.311 276.639 286.465 323.216 263.441C337.726 256.278 354.469 252.634 373.025 252.634C436.402 252.634 511.465 294.494 561.128 322.187C566.719 325.308 572.045 328.267 577.059 331.025C605.83 346.803 635.563 362.114 664.335 376.906C722.605 406.875 782.823 437.865 837.113 473.993C876.081 499.915 908.467 530.926 939.069 571.539C966.494 607.968 964.806 653.549 963.166 697.626C963.048 701.146 962.9 704.669 962.781 708.153ZM776.295 900.387H776.321C803.498 900.367 829.644 895.94 853.984 887.164C942.279 855.386 972.423 762.69 982.52 710.262L982.638 709.158C982.761 705.514 982.879 701.851 983.023 698.148C984.685 653.713 986.541 603.358 955.864 562.605C924.033 520.339 890.227 488.017 849.454 460.89C794.226 424.141 733.474 392.886 674.727 362.658C646.074 347.905 616.433 332.673 587.928 317.034C582.938 314.299 577.663 311.359 572.12 308.26C520.455 279.461 442.406 235.929 373.028 235.929C350.885 235.929 330.74 240.338 313.145 249.031C268.084 271.31 252.183 321.642 265.843 398.623C293.701 555.359 400.812 717.409 538.745 811.433C625.277 870.46 705.206 900.387 776.295 900.387Z" fill="#EABC9B"/>
<path fill-rule="evenodd" clip-rule="evenodd" d="M507.294 441.228C555.899 441.228 622.355 469.665 647.398 480.373C706.939 505.848 843.523 577.276 825.543 689.976C807.471 745.079 760.988 756.694 725.179 756.694C690.989 756.714 650.432 745.825 613.878 726.827C566.667 702.297 526.136 666.511 496.67 623.32C481.483 601.063 433.626 524.166 455.001 468.923C462.112 450.548 479.701 441.228 507.294 441.228ZM725.181 760.877C762.727 760.877 811.427 748.723 830.391 690.803C848.874 575.182 710.142 502.531 649.638 476.65C624.337 465.823 557.105 437.062 507.295 437.062C477.294 437.062 458.112 447.345 450.255 467.633C428.255 524.507 476.935 602.773 492.356 625.394C522.233 669.186 563.342 705.493 611.272 730.39C648.578 749.768 690.096 760.877 725.181 760.877Z" fill="#EABC9B"/>
<path fill-rule="evenodd" clip-rule="evenodd" d="M954.674 2287.5C890.411 2261.73 846.161 2227.47 833.498 2190.5C818.371 2146.39 835.021 2088.44 848.963 2043.27C850.51 2038.33 852.026 2033.41 853.498 2028.5C872.945 1900.47 580.998 1911.5 641.817 1810.9C699.686 1720.8 799.312 1665.05 895.657 1611.15C993.594 1556.36 1094.86 1499.72 1151.86 1407.01C1163.63 1387.89 1173.72 1368 1182.62 1347.71V1359.47C1174.8 1376.33 1166.14 1392.88 1156.28 1408.94C1098.7 1502.62 996.874 1559.54 898.434 1614.65C802.568 1668.27 703.476 1723.7 646.184 1812.88C586.914 1905.15 898.351 1897.4 857.004 2035.03C855.532 2039.91 854.011 2044.81 852.495 2049.76C839.032 2093.37 823.011 2142.79 838.498 2188C855.72 2238.24 913.379 2265.98 954.674 2282.53C1030.14 2312.74 1109.54 2334.75 1188.99 2352.63C1190.81 2353.04 1191.6 2355.19 1190.49 2356.68C1189.89 2357.48 1188.86 2357.86 1187.88 2357.65C1102.1 2339.05 1036.32 2320.17 954.674 2287.5Z" fill="#EABC9B"/>
</svg>
