<svg width="3932" height="477" viewBox="0 0 3932 477" fill="none" xmlns="http://www.w3.org/2000/svg">
<path d="M0 -0.000976562H3931.98V31.499L0 399.999V-0.000976562Z" fill="#935151"/>
<path d="M3931.98 476.999L1.01144 476.809V445.309L3931.98 76.9986V476.999Z" fill="black"/>
<path d="M0 370.481L3932 -0.000976562V105.999L0 476.481V370.481Z" fill="#D6D967"/>
<path d="M43.7325 441.733L36.5147 442.415C36.3487 442.431 36.2559 442.335 36.2362 442.127L32.1314 398.351C32.1156 398.185 32.2114 398.092 32.4188 398.072L39.5122 397.402C39.7196 397.382 39.8312 397.455 39.847 397.621L41.4344 414.955L50.9855 414.052L49.3359 396.724C49.3201 396.558 49.3952 396.468 49.5611 396.452L56.6545 395.781C56.8619 395.762 56.9735 395.835 56.9893 396.001L61.2808 439.76C61.3005 439.967 61.2067 440.081 60.9993 440.1L53.8437 440.777C53.6363 440.796 53.5227 440.703 53.5029 440.495L51.72 421.767L42.1689 422.67L43.9518 441.398C43.9715 441.605 43.8984 441.717 43.7325 441.733ZM94.9225 437.521C92.6618 437.735 90.522 437.352 88.5033 436.37C86.5053 435.387 84.8338 433.986 83.4887 432.167C82.1623 430.326 81.3886 428.244 81.1674 425.921L79.3076 405.725C79.0825 403.361 79.4505 401.181 80.4116 399.186C81.3499 397.172 82.7189 395.504 84.5184 394.183C86.316 392.841 88.3348 392.065 90.5749 391.853C92.8978 391.633 95.0366 392.007 96.9911 392.973C98.9664 393.937 100.606 395.331 101.909 397.154C103.232 398.954 104.005 401.026 104.228 403.369L106.212 423.553C106.433 425.876 106.076 428.055 105.139 430.09C104.184 432.147 102.818 433.845 101.041 435.185C99.2643 436.525 97.2248 437.304 94.9225 437.521ZM94.191 429.837C95.477 429.716 96.5476 429.092 97.403 427.964C98.2563 426.816 98.6208 425.589 98.4965 424.283L96.5121 404.099C96.3779 402.688 95.8184 401.538 94.8338 400.647C93.8491 399.757 92.6723 399.376 91.3034 399.506C89.9967 399.629 88.9222 400.212 88.0796 401.255C87.2371 402.297 86.885 403.544 87.0232 404.996L88.9453 425.185C89.0776 426.575 89.6588 427.734 90.6888 428.662C91.7169 429.569 92.8843 429.961 94.191 429.837ZM141.047 432.534L133.861 433.213C133.674 433.231 133.571 433.136 133.551 432.928L130.092 396.593L121.816 397.375C121.609 397.394 121.495 397.301 121.476 397.093L120.86 389.963C120.844 389.797 120.919 389.707 121.085 389.691L145.289 387.403C145.518 387.381 145.64 387.453 145.655 387.619L146.334 394.743C146.353 394.951 146.28 395.062 146.114 395.078L137.745 395.869L141.267 432.199C141.286 432.406 141.213 432.518 141.047 432.534ZM243.231 422.874L236.013 423.557C235.847 423.572 235.754 423.477 235.734 423.269L231.63 379.492C231.614 379.327 231.71 379.234 231.917 379.214L239.01 378.544C239.218 378.524 239.329 378.597 239.345 378.763L240.933 396.097L250.484 395.194L248.834 377.866C248.818 377.7 248.893 377.609 249.059 377.594L256.153 376.923C256.36 376.904 256.472 376.977 256.487 377.143L260.779 420.902C260.799 421.109 260.705 421.223 260.497 421.242L253.342 421.919C253.134 421.938 253.021 421.844 253.001 421.637L251.218 402.909L241.667 403.812L243.45 422.54C243.47 422.747 243.397 422.859 243.231 422.874ZM294.421 418.663C292.16 418.877 290.02 418.493 288.002 417.512C286.004 416.529 284.332 415.128 282.987 413.309C281.661 411.468 280.887 409.385 280.666 407.063L278.806 386.867C278.581 384.502 278.949 382.323 279.91 380.328C280.848 378.314 282.217 376.646 284.017 375.325C285.814 373.983 287.833 373.207 290.073 372.995C292.396 372.775 294.535 373.149 296.489 374.115C298.465 375.079 300.104 376.473 301.408 378.295C302.73 380.096 303.503 382.168 303.726 384.511L305.71 404.695C305.931 407.018 305.574 409.197 304.637 411.231C303.682 413.289 302.316 414.987 300.539 416.327C298.763 417.667 296.723 418.446 294.421 418.663ZM293.689 410.979C294.975 410.858 296.046 410.233 296.901 409.106C297.755 407.958 298.119 406.731 297.995 405.425L296.01 385.24C295.876 383.83 295.317 382.68 294.332 381.789C293.347 380.899 292.171 380.518 290.802 380.648C289.495 380.771 288.42 381.354 287.578 382.396C286.735 383.439 286.383 384.686 286.521 386.137L288.443 406.327C288.576 407.717 289.157 408.876 290.187 409.804C291.215 410.711 292.383 411.103 293.689 410.979ZM340.546 413.675L333.359 414.355C333.172 414.372 333.069 414.278 333.049 414.07L329.59 377.734L321.314 378.517C321.107 378.536 320.994 378.442 320.974 378.235L320.358 371.105C320.342 370.939 320.417 370.848 320.583 370.833L344.788 368.545C345.016 368.523 345.138 368.595 345.153 368.761L345.832 375.885C345.851 376.093 345.778 376.204 345.612 376.22L337.243 377.011L340.765 413.341C340.785 413.548 340.712 413.66 340.546 413.675ZM442.729 404.016L435.511 404.699C435.345 404.714 435.252 404.618 435.233 404.411L431.128 360.634C431.112 360.468 431.208 360.376 431.415 360.356L438.509 359.686C438.716 359.666 438.828 359.739 438.843 359.905L440.431 377.239L449.982 376.336L448.332 359.008C448.317 358.842 448.392 358.751 448.558 358.736L455.651 358.065C455.858 358.045 455.97 358.119 455.986 358.285L460.277 402.044C460.297 402.251 460.203 402.365 459.996 402.384L452.84 403.061C452.633 403.08 452.519 402.986 452.499 402.779L450.716 384.051L441.165 384.954L442.948 403.682C442.968 403.889 442.895 404.001 442.729 404.016ZM493.919 399.805C491.658 400.019 489.518 399.635 487.5 398.654C485.502 397.671 483.83 396.27 482.485 394.451C481.159 392.61 480.385 390.527 480.164 388.204L478.304 368.009C478.079 365.644 478.447 363.465 479.408 361.469C480.346 359.456 481.715 357.788 483.515 356.467C485.312 355.125 487.331 354.348 489.571 354.137C491.894 353.917 494.033 354.29 495.988 355.257C497.963 356.221 499.602 357.614 500.906 359.437C502.228 361.238 503.001 363.309 503.224 365.653L505.208 385.837C505.43 388.16 505.072 390.339 504.136 392.373C503.18 394.431 501.814 396.129 500.038 397.469C498.261 398.809 496.221 399.588 493.919 399.805ZM493.187 392.121C494.473 392 495.544 391.375 496.399 390.248C497.253 389.1 497.617 387.873 497.493 386.566L495.509 366.382C495.374 364.972 494.815 363.822 493.83 362.931C492.845 362.041 491.669 361.66 490.3 361.79C488.993 361.913 487.919 362.496 487.076 363.538C486.234 364.58 485.881 365.827 486.02 367.279L487.942 387.469C488.074 388.859 488.655 390.018 489.685 390.946C490.713 391.853 491.881 392.245 493.187 392.121ZM540.044 394.817L532.857 395.497C532.67 395.514 532.567 395.419 532.548 395.212L529.088 358.876L520.813 359.659C520.605 359.678 520.492 359.584 520.472 359.377L519.856 352.247C519.84 352.081 519.915 351.99 520.081 351.975L544.286 349.687C544.514 349.665 544.636 349.737 544.652 349.903L545.33 357.027C545.35 357.235 545.277 357.346 545.111 357.362L536.742 358.153L540.263 394.483C540.283 394.69 540.21 394.802 540.044 394.817ZM642.227 385.158L635.009 385.84C634.843 385.856 634.75 385.76 634.731 385.553L630.626 341.776C630.61 341.61 630.706 341.517 630.913 341.498L638.007 340.827C638.214 340.808 638.326 340.881 638.342 341.047L639.929 358.381L649.48 357.478L647.831 340.15C647.815 339.984 647.89 339.893 648.056 339.877L655.149 339.207C655.356 339.187 655.468 339.26 655.484 339.426L659.775 383.185C659.795 383.393 659.701 383.506 659.494 383.526L652.338 384.202C652.131 384.222 652.017 384.128 651.998 383.921L650.215 365.193L640.663 366.096L642.446 384.824C642.466 385.031 642.393 385.142 642.227 385.158ZM693.417 380.947C691.156 381.161 689.017 380.777 686.998 379.796C685 378.813 683.328 377.412 681.983 375.593C680.657 373.751 679.883 371.669 679.662 369.346L677.802 349.15C677.577 346.786 677.945 344.606 678.906 342.611C679.845 340.597 681.213 338.93 683.013 337.609C684.811 336.267 686.829 335.49 689.069 335.279C691.392 335.059 693.531 335.432 695.486 336.398C697.461 337.363 699.1 338.756 700.404 340.579C701.726 342.379 702.499 344.451 702.722 346.795L704.707 366.979C704.928 369.302 704.57 371.48 703.634 373.515C702.679 375.572 701.313 377.271 699.536 378.611C697.759 379.951 695.719 380.729 693.417 380.947ZM692.686 373.263C693.972 373.142 695.042 372.517 695.898 371.39C696.751 370.242 697.115 369.015 696.991 367.708L695.007 347.524C694.872 346.114 694.313 344.964 693.328 344.073C692.344 343.183 691.167 342.802 689.798 342.931C688.491 343.055 687.417 343.638 686.574 344.68C685.732 345.722 685.38 346.969 685.518 348.421L687.44 368.611C687.572 370.001 688.153 371.159 689.183 372.087C690.212 372.995 691.379 373.387 692.686 373.263ZM739.542 375.959L732.355 376.639C732.169 376.656 732.065 376.561 732.046 376.354L728.587 340.018L720.311 340.8C720.104 340.82 719.99 340.726 719.97 340.519L719.354 333.389C719.338 333.223 719.413 333.132 719.579 333.116L743.784 330.828C744.012 330.807 744.134 330.879 744.15 331.045L744.828 338.169C744.848 338.376 744.775 338.488 744.609 338.504L736.24 339.295L739.761 375.625C739.781 375.832 739.708 375.944 739.542 375.959ZM841.725 366.3L834.507 366.982C834.342 366.998 834.249 366.902 834.229 366.695L830.124 322.918C830.108 322.752 830.204 322.659 830.412 322.64L837.505 321.969C837.712 321.95 837.824 322.023 837.84 322.189L839.427 339.522L848.978 338.62L847.329 321.292C847.313 321.126 847.388 321.035 847.554 321.019L854.647 320.349C854.855 320.329 854.966 320.402 854.982 320.568L859.274 364.327C859.293 364.535 859.199 364.648 858.992 364.668L851.836 365.344C851.629 365.364 851.515 365.27 851.496 365.063L849.713 346.335L840.162 347.238L841.945 365.965C841.964 366.173 841.891 366.284 841.725 366.3ZM892.915 362.089C890.655 362.303 888.515 361.919 886.496 360.938C884.498 359.955 882.827 358.554 881.482 356.735C880.155 354.893 879.381 352.811 879.16 350.488L877.3 330.292C877.075 327.928 877.443 325.748 878.404 323.753C879.343 321.739 880.712 320.072 882.511 318.751C884.309 317.409 886.328 316.632 888.568 316.42C890.891 316.201 893.029 316.574 894.984 317.54C896.959 318.505 898.599 319.898 899.902 321.721C901.225 323.521 901.997 325.593 902.221 327.937L904.205 348.121C904.426 350.444 904.068 352.622 903.132 354.657C902.177 356.714 900.811 358.413 899.034 359.753C897.257 361.093 895.218 361.871 892.915 362.089ZM892.184 354.405C893.47 354.283 894.54 353.659 895.396 352.532C896.249 351.384 896.614 350.157 896.489 348.85L894.505 328.666C894.371 327.256 893.811 326.105 892.827 325.215C891.842 324.324 890.665 323.944 889.296 324.073C887.99 324.197 886.915 324.78 886.072 325.822C885.23 326.864 884.878 328.111 885.016 329.563L886.938 349.753C887.07 351.143 887.652 352.301 888.682 353.229C889.71 354.137 890.877 354.528 892.184 354.405ZM939.04 357.101L931.854 357.78C931.667 357.798 931.564 357.703 931.544 357.496L928.085 321.16L919.809 321.942C919.602 321.962 919.488 321.868 919.468 321.661L918.852 314.531C918.837 314.365 918.912 314.274 919.078 314.258L943.282 311.97C943.51 311.949 943.632 312.021 943.648 312.187L944.326 319.311C944.346 319.518 944.273 319.63 944.107 319.646L935.738 320.437L939.259 356.766C939.279 356.974 939.206 357.085 939.04 357.101ZM1041.22 347.442L1034.01 348.124C1033.84 348.14 1033.75 348.044 1033.73 347.837L1029.62 304.06C1029.61 303.894 1029.7 303.801 1029.91 303.782L1037 303.111C1037.21 303.091 1037.32 303.165 1037.34 303.331L1038.93 320.664L1048.48 319.762L1046.83 302.434C1046.81 302.268 1046.89 302.177 1047.05 302.161L1054.15 301.491C1054.35 301.471 1054.46 301.544 1054.48 301.71L1058.77 345.469C1058.79 345.677 1058.7 345.79 1058.49 345.81L1051.33 346.486C1051.13 346.506 1051.01 346.412 1050.99 346.204L1049.21 327.477L1039.66 328.379L1041.44 347.107C1041.46 347.315 1041.39 347.426 1041.22 347.442ZM1092.41 343.231C1090.15 343.445 1088.01 343.061 1085.99 342.08C1084 341.097 1082.32 339.696 1080.98 337.877C1079.65 336.035 1078.88 333.953 1078.66 331.63L1076.8 311.434C1076.57 309.07 1076.94 306.89 1077.9 304.895C1078.84 302.881 1080.21 301.214 1082.01 299.893C1083.81 298.551 1085.83 297.774 1088.07 297.562C1090.39 297.343 1092.53 297.716 1094.48 298.682C1096.46 299.646 1098.1 301.04 1099.4 302.863C1100.72 304.663 1101.5 306.735 1101.72 309.079L1103.7 329.263C1103.92 331.585 1103.57 333.764 1102.63 335.799C1101.68 337.856 1100.31 339.555 1098.53 340.895C1096.76 342.234 1094.72 343.013 1092.41 343.231ZM1091.68 335.547C1092.97 335.425 1094.04 334.801 1094.89 333.674C1095.75 332.526 1096.11 331.299 1095.99 329.992L1094 309.808C1093.87 308.398 1093.31 307.247 1092.32 306.357C1091.34 305.466 1090.16 305.086 1088.79 305.215C1087.49 305.339 1086.41 305.922 1085.57 306.964C1084.73 308.006 1084.38 309.253 1084.51 310.705L1086.44 330.895C1086.57 332.284 1087.15 333.443 1088.18 334.371C1089.21 335.278 1090.38 335.67 1091.68 335.547ZM1138.54 338.243L1131.35 338.922C1131.17 338.94 1131.06 338.845 1131.04 338.638L1127.58 302.302L1119.31 303.084C1119.1 303.104 1118.99 303.01 1118.97 302.803L1118.35 295.673C1118.33 295.507 1118.41 295.416 1118.58 295.4L1142.78 293.112C1143.01 293.091 1143.13 293.163 1143.15 293.329L1143.82 300.453C1143.84 300.66 1143.77 300.772 1143.61 300.787L1135.24 301.578L1138.76 337.908C1138.78 338.116 1138.7 338.227 1138.54 338.243ZM1240.72 328.584L1233.5 329.266C1233.34 329.282 1233.25 329.186 1233.23 328.979L1229.12 285.202C1229.1 285.036 1229.2 284.943 1229.41 284.923L1236.5 284.253C1236.71 284.233 1236.82 284.307 1236.84 284.472L1238.42 301.806L1247.97 300.903L1246.33 283.575C1246.31 283.41 1246.38 283.319 1246.55 283.303L1253.64 282.633C1253.85 282.613 1253.96 282.686 1253.98 282.852L1258.27 326.611C1258.29 326.818 1258.2 326.932 1257.99 326.952L1250.83 327.628C1250.63 327.648 1250.51 327.554 1250.49 327.346L1248.71 308.618L1239.16 309.521L1240.94 328.249C1240.96 328.457 1240.89 328.568 1240.72 328.584ZM1291.91 324.373C1289.65 324.586 1287.51 324.203 1285.49 323.222C1283.49 322.239 1281.82 320.838 1280.48 319.019C1279.15 317.177 1278.38 315.095 1278.16 312.772L1276.3 292.576C1276.07 290.212 1276.44 288.032 1277.4 286.037C1278.34 284.023 1279.71 282.356 1281.51 281.034C1283.31 279.693 1285.32 278.916 1287.56 278.704C1289.89 278.485 1292.03 278.858 1293.98 279.824C1295.96 280.788 1297.6 282.182 1298.9 284.005C1300.22 285.805 1300.99 287.877 1301.22 290.22L1303.2 310.405C1303.42 312.727 1303.06 314.906 1302.13 316.941C1301.17 318.998 1299.81 320.697 1298.03 322.037C1296.25 323.376 1294.21 324.155 1291.91 324.373ZM1291.18 316.689C1292.47 316.567 1293.54 315.943 1294.39 314.816C1295.25 313.668 1295.61 312.44 1295.49 311.134L1293.5 290.95C1293.37 289.539 1292.81 288.389 1291.82 287.499C1290.84 286.608 1289.66 286.228 1288.29 286.357C1286.99 286.481 1285.91 287.063 1285.07 288.106C1284.23 289.148 1283.87 290.395 1284.01 291.847L1285.93 312.037C1286.07 313.426 1286.65 314.585 1287.68 315.513C1288.71 316.42 1289.87 316.812 1291.18 316.689ZM1338.04 319.385L1330.85 320.064C1330.66 320.082 1330.56 319.987 1330.54 319.78L1327.08 283.444L1318.81 284.226C1318.6 284.246 1318.48 284.152 1318.46 283.944L1317.85 276.814C1317.83 276.649 1317.91 276.558 1318.07 276.542L1342.28 274.254C1342.51 274.233 1342.63 274.305 1342.64 274.471L1343.32 281.595C1343.34 281.802 1343.27 281.914 1343.1 281.929L1334.73 282.72L1338.26 319.05C1338.28 319.258 1338.2 319.369 1338.04 319.385ZM1440.22 309.726L1433 310.408C1432.84 310.424 1432.74 310.328 1432.72 310.12L1428.62 266.344C1428.6 266.178 1428.7 266.085 1428.91 266.065L1436 265.395C1436.21 265.375 1436.32 265.448 1436.33 265.614L1437.92 282.948L1447.47 282.045L1445.82 264.717C1445.81 264.551 1445.88 264.461 1446.05 264.445L1453.14 263.774C1453.35 263.755 1453.46 263.828 1453.48 263.994L1457.77 307.753C1457.79 307.96 1457.69 308.074 1457.49 308.093L1450.33 308.77C1450.12 308.789 1450.01 308.696 1449.99 308.488L1448.21 289.76L1438.66 290.663L1440.44 309.391C1440.46 309.598 1440.39 309.71 1440.22 309.726ZM1491.41 305.515C1489.15 305.728 1487.01 305.345 1484.99 304.364C1482.99 303.381 1481.32 301.98 1479.98 300.161C1478.65 298.319 1477.88 296.237 1477.65 293.914L1475.8 273.718C1475.57 271.354 1475.94 269.174 1476.9 267.179C1477.84 265.165 1479.21 263.497 1481.01 262.176C1482.8 260.835 1484.82 260.058 1487.06 259.846C1489.39 259.626 1491.52 260 1493.48 260.966C1495.45 261.93 1497.09 263.324 1498.4 265.147C1499.72 266.947 1500.49 269.019 1500.72 271.362L1502.7 291.546C1502.92 293.869 1502.56 296.048 1501.63 298.083C1500.67 300.14 1499.31 301.839 1497.53 303.178C1495.75 304.518 1493.71 305.297 1491.41 305.515ZM1490.68 297.831C1491.96 297.709 1493.04 297.085 1493.89 295.957C1494.74 294.81 1495.11 293.582 1494.98 292.276L1493 272.092C1492.87 270.681 1492.31 269.531 1491.32 268.641C1490.34 267.75 1489.16 267.37 1487.79 267.499C1486.48 267.622 1485.41 268.205 1484.57 269.248C1483.72 270.29 1483.37 271.537 1483.51 272.989L1485.43 293.179C1485.57 294.568 1486.15 295.727 1487.18 296.655C1488.2 297.562 1489.37 297.954 1490.68 297.831ZM1537.53 300.527L1530.35 301.206C1530.16 301.224 1530.06 301.129 1530.04 300.921L1526.58 264.586L1518.3 265.368C1518.1 265.388 1517.98 265.294 1517.96 265.086L1517.35 257.956C1517.33 257.79 1517.41 257.7 1517.57 257.684L1541.78 255.396C1542 255.374 1542.13 255.447 1542.14 255.612L1542.82 262.737C1542.84 262.944 1542.77 263.055 1542.6 263.071L1534.23 263.862L1537.75 300.192C1537.77 300.399 1537.7 300.511 1537.53 300.527ZM1639.72 290.868L1632.5 291.55C1632.33 291.565 1632.24 291.47 1632.22 291.262L1628.12 247.486C1628.1 247.32 1628.2 247.227 1628.4 247.207L1635.5 246.537C1635.71 246.517 1635.82 246.59 1635.83 246.756L1637.42 264.09L1646.97 263.187L1645.32 245.859C1645.31 245.693 1645.38 245.602 1645.55 245.587L1652.64 244.916C1652.85 244.897 1652.96 244.97 1652.97 245.136L1657.27 288.895C1657.29 289.102 1657.19 289.216 1656.98 289.235L1649.83 289.912C1649.62 289.931 1649.51 289.837 1649.49 289.63L1647.71 270.902L1638.15 271.805L1639.94 290.533C1639.96 290.74 1639.88 290.852 1639.72 290.868ZM1690.91 286.656C1688.65 286.87 1686.51 286.486 1684.49 285.505C1682.49 284.522 1680.82 283.121 1679.47 281.302C1678.15 279.461 1677.37 277.378 1677.15 275.056L1675.29 254.86C1675.07 252.496 1675.44 250.316 1676.4 248.321C1677.34 246.307 1678.7 244.639 1680.5 243.318C1682.3 241.976 1684.32 241.2 1686.56 240.988C1688.88 240.768 1691.02 241.142 1692.98 242.108C1694.95 243.072 1696.59 244.466 1697.9 246.288C1699.22 248.089 1699.99 250.161 1700.21 252.504L1702.2 272.688C1702.42 275.011 1702.06 277.19 1701.12 279.224C1700.17 281.282 1698.8 282.98 1697.03 284.32C1695.25 285.66 1693.21 286.439 1690.91 286.656ZM1690.18 278.972C1691.46 278.851 1692.53 278.226 1693.39 277.099C1694.24 275.951 1694.61 274.724 1694.48 273.418L1692.5 253.234C1692.36 251.823 1691.8 250.673 1690.82 249.782C1689.83 248.892 1688.66 248.511 1687.29 248.641C1685.98 248.764 1684.91 249.347 1684.07 250.389C1683.22 251.432 1682.87 252.679 1683.01 254.13L1684.93 274.32C1685.06 275.71 1685.64 276.869 1686.67 277.797C1687.7 278.704 1688.87 279.096 1690.18 278.972ZM1737.03 281.669L1729.85 282.348C1729.66 282.366 1729.56 282.271 1729.54 282.063L1726.08 245.728L1717.8 246.51C1717.59 246.529 1717.48 246.436 1717.46 246.228L1716.85 239.098C1716.83 238.932 1716.9 238.842 1717.07 238.826L1741.28 236.538C1741.5 236.516 1741.63 236.588 1741.64 236.754L1742.32 243.878C1742.34 244.086 1742.27 244.197 1742.1 244.213L1733.73 245.004L1737.25 281.334C1737.27 281.541 1737.2 281.653 1737.03 281.669ZM1839.22 272.009L1832 272.692C1831.83 272.707 1831.74 272.612 1831.72 272.404L1827.62 228.627C1827.6 228.461 1827.7 228.369 1827.9 228.349L1835 227.679C1835.2 227.659 1835.31 227.732 1835.33 227.898L1836.92 245.232L1846.47 244.329L1844.82 227.001C1844.8 226.835 1844.88 226.744 1845.04 226.729L1852.14 226.058C1852.35 226.039 1852.46 226.112 1852.47 226.278L1856.76 270.037C1856.78 270.244 1856.69 270.358 1856.48 270.377L1849.33 271.054C1849.12 271.073 1849.01 270.979 1848.99 270.772L1847.2 252.044L1837.65 252.947L1839.44 271.675C1839.46 271.882 1839.38 271.994 1839.22 272.009ZM1890.41 267.798C1888.15 268.012 1886.01 267.628 1883.99 266.647C1881.99 265.664 1880.32 264.263 1878.97 262.444C1877.65 260.603 1876.87 258.52 1876.65 256.198L1874.79 236.002C1874.57 233.637 1874.93 231.458 1875.9 229.463C1876.83 227.449 1878.2 225.781 1880 224.46C1881.8 223.118 1883.82 222.342 1886.06 222.13C1888.38 221.91 1890.52 222.283 1892.47 223.25C1894.45 224.214 1896.09 225.607 1897.39 227.43C1898.72 229.231 1899.49 231.302 1899.71 233.646L1901.7 253.83C1901.92 256.153 1901.56 258.332 1900.62 260.366C1899.67 262.424 1898.3 264.122 1896.52 265.462C1894.75 266.802 1892.71 267.581 1890.41 267.798ZM1889.67 260.114C1890.96 259.993 1892.03 259.368 1892.89 258.241C1893.74 257.093 1894.1 255.866 1893.98 254.559L1892 234.375C1891.86 232.965 1891.3 231.815 1890.32 230.924C1889.33 230.034 1888.16 229.653 1886.79 229.783C1885.48 229.906 1884.41 230.489 1883.56 231.531C1882.72 232.574 1882.37 233.821 1882.51 235.272L1884.43 255.462C1884.56 256.852 1885.14 258.011 1886.17 258.939C1887.2 259.846 1888.37 260.238 1889.67 260.114ZM1936.53 262.81L1929.34 263.49C1929.16 263.507 1929.05 263.413 1929.03 263.205L1925.58 226.869L1917.3 227.652C1917.09 227.671 1916.98 227.577 1916.96 227.37L1916.34 220.24C1916.33 220.074 1916.4 219.983 1916.57 219.968L1940.77 217.68C1941 217.658 1941.12 217.73 1941.14 217.896L1941.82 225.02C1941.84 225.228 1941.76 225.339 1941.6 225.355L1933.23 226.146L1936.75 262.476C1936.77 262.683 1936.7 262.795 1936.53 262.81ZM2038.71 253.151L2031.5 253.834C2031.33 253.849 2031.24 253.753 2031.22 253.546L2027.11 209.769C2027.1 209.603 2027.19 209.511 2027.4 209.491L2034.49 208.82C2034.7 208.801 2034.81 208.874 2034.83 209.04L2036.42 226.374L2045.97 225.471L2044.32 208.143C2044.3 207.977 2044.38 207.886 2044.54 207.871L2051.64 207.2C2051.84 207.18 2051.96 207.254 2051.97 207.419L2056.26 251.179C2056.28 251.386 2056.19 251.499 2055.98 251.519L2048.83 252.195C2048.62 252.215 2048.5 252.121 2048.49 251.914L2046.7 233.186L2037.15 234.089L2038.93 252.817C2038.95 253.024 2038.88 253.136 2038.71 253.151ZM2089.9 248.94C2087.64 249.154 2085.5 248.77 2083.49 247.789C2081.49 246.806 2079.82 245.405 2078.47 243.586C2077.14 241.744 2076.37 239.662 2076.15 237.339L2074.29 217.144C2074.06 214.779 2074.43 212.6 2075.39 210.604C2076.33 208.59 2077.7 206.923 2079.5 205.602C2081.3 204.26 2083.32 203.483 2085.56 203.272C2087.88 203.052 2090.02 203.425 2091.97 204.392C2093.95 205.356 2095.59 206.749 2096.89 208.572C2098.21 210.372 2098.99 212.444 2099.21 214.788L2101.19 234.972C2101.42 237.295 2101.06 239.474 2100.12 241.508C2099.17 243.566 2097.8 245.264 2096.02 246.604C2094.25 247.944 2092.21 248.723 2089.9 248.94ZM2089.17 241.256C2090.46 241.135 2091.53 240.51 2092.39 239.383C2093.24 238.235 2093.6 237.008 2093.48 235.701L2091.49 215.517C2091.36 214.107 2090.8 212.957 2089.82 212.066C2088.83 211.176 2087.65 210.795 2086.29 210.925C2084.98 211.048 2083.9 211.631 2083.06 212.673C2082.22 213.715 2081.87 214.962 2082.01 216.414L2083.93 236.604C2084.06 237.994 2084.64 239.152 2085.67 240.081C2086.7 240.988 2087.87 241.38 2089.17 241.256ZM2136.03 243.952L2128.84 244.632C2128.66 244.649 2128.55 244.554 2128.53 244.347L2125.07 208.011L2116.8 208.794C2116.59 208.813 2116.48 208.719 2116.46 208.512L2115.84 201.382C2115.83 201.216 2115.9 201.125 2116.07 201.11L2140.27 198.822C2140.5 198.8 2140.62 198.872 2140.64 199.038L2141.32 206.162C2141.34 206.369 2141.26 206.481 2141.1 206.497L2132.73 207.288L2136.25 243.618C2136.27 243.825 2136.2 243.937 2136.03 243.952ZM2238.21 234.293L2231 234.975C2230.83 234.991 2230.74 234.895 2230.72 234.688L2226.61 190.911C2226.6 190.745 2226.69 190.652 2226.9 190.633L2233.99 189.962C2234.2 189.943 2234.31 190.016 2234.33 190.182L2235.91 207.516L2245.47 206.613L2243.82 189.285C2243.8 189.119 2243.88 189.028 2244.04 189.012L2251.13 188.342C2251.34 188.322 2251.45 188.395 2251.47 188.561L2255.76 232.32C2255.78 232.528 2255.69 232.641 2255.48 232.661L2248.32 233.337C2248.12 233.357 2248 233.263 2247.98 233.056L2246.2 214.328L2236.65 215.231L2238.43 233.958C2238.45 234.166 2238.38 234.277 2238.21 234.293ZM2289.4 230.082C2287.14 230.296 2285 229.912 2282.98 228.931C2280.99 227.948 2279.31 226.547 2277.97 224.728C2276.64 222.886 2275.87 220.804 2275.65 218.481L2273.79 198.285C2273.56 195.921 2273.93 193.741 2274.89 191.746C2275.83 189.732 2277.2 188.065 2279 186.744C2280.8 185.402 2282.81 184.625 2285.05 184.414C2287.38 184.194 2289.52 184.567 2291.47 185.533C2293.45 186.498 2295.09 187.891 2296.39 189.714C2297.71 191.514 2298.48 193.586 2298.71 195.93L2300.69 216.114C2300.91 218.437 2300.56 220.615 2299.62 222.65C2298.66 224.707 2297.3 226.406 2295.52 227.746C2293.74 229.086 2291.7 229.864 2289.4 230.082ZM2288.67 222.398C2289.96 222.276 2291.03 221.652 2291.88 220.525C2292.74 219.377 2293.1 218.15 2292.98 216.843L2290.99 196.659C2290.86 195.249 2290.3 194.098 2289.31 193.208C2288.33 192.318 2287.15 191.937 2285.78 192.066C2284.48 192.19 2283.4 192.773 2282.56 193.815C2281.72 194.857 2281.36 196.104 2281.5 197.556L2283.43 217.746C2283.56 219.136 2284.14 220.294 2285.17 221.222C2286.2 222.13 2287.36 222.522 2288.67 222.398ZM2335.53 225.094L2328.34 225.774C2328.15 225.791 2328.05 225.696 2328.03 225.489L2324.57 189.153L2316.3 189.935C2316.09 189.955 2315.98 189.861 2315.96 189.654L2315.34 182.524C2315.32 182.358 2315.4 182.267 2315.56 182.251L2339.77 179.963C2340 179.942 2340.12 180.014 2340.14 180.18L2340.81 187.304C2340.83 187.511 2340.76 187.623 2340.59 187.639L2332.23 188.43L2335.75 224.76C2335.77 224.967 2335.69 225.078 2335.53 225.094ZM2437.71 215.435L2430.49 216.117C2430.33 216.133 2430.23 216.037 2430.21 215.83L2426.11 172.053C2426.09 171.887 2426.19 171.794 2426.4 171.775L2433.49 171.104C2433.7 171.085 2433.81 171.158 2433.83 171.324L2435.41 188.657L2444.96 187.755L2443.31 170.427C2443.3 170.261 2443.37 170.17 2443.54 170.154L2450.63 169.484C2450.84 169.464 2450.95 169.537 2450.97 169.703L2455.26 213.462C2455.28 213.67 2455.18 213.783 2454.98 213.803L2447.82 214.479C2447.61 214.499 2447.5 214.405 2447.48 214.198L2445.7 195.47L2436.15 196.373L2437.93 215.1C2437.95 215.308 2437.88 215.419 2437.71 215.435ZM2488.9 211.224C2486.64 211.438 2484.5 211.054 2482.48 210.073C2480.48 209.09 2478.81 207.689 2477.47 205.87C2476.14 204.028 2475.37 201.946 2475.15 199.623L2473.29 179.427C2473.06 177.063 2473.43 174.883 2474.39 172.888C2475.33 170.874 2476.7 169.207 2478.5 167.886C2480.29 166.544 2482.31 165.767 2484.55 165.555C2486.88 165.336 2489.02 165.709 2490.97 166.675C2492.94 167.64 2494.58 169.033 2495.89 170.856C2497.21 172.656 2497.98 174.728 2498.21 177.072L2500.19 197.256C2500.41 199.579 2500.05 201.757 2499.12 203.792C2498.16 205.849 2496.8 207.548 2495.02 208.888C2493.24 210.228 2491.2 211.006 2488.9 211.224ZM2488.17 203.54C2489.46 203.418 2490.53 202.794 2491.38 201.667C2492.23 200.519 2492.6 199.292 2492.47 197.985L2490.49 177.801C2490.36 176.391 2489.8 175.24 2488.81 174.35C2487.83 173.459 2486.65 173.079 2485.28 173.208C2483.98 173.332 2482.9 173.915 2482.06 174.957C2481.22 175.999 2480.86 177.246 2481 178.698L2482.92 198.888C2483.06 200.277 2483.64 201.436 2484.67 202.364C2485.7 203.272 2486.86 203.663 2488.17 203.54ZM2535.03 206.236L2527.84 206.915C2527.65 206.933 2527.55 206.838 2527.53 206.631L2524.07 170.295L2515.79 171.077C2515.59 171.097 2515.47 171.003 2515.45 170.796L2514.84 163.666C2514.82 163.5 2514.9 163.409 2515.06 163.393L2539.27 161.105C2539.5 161.084 2539.62 161.156 2539.63 161.322L2540.31 168.446C2540.33 168.653 2540.26 168.765 2540.09 168.78L2531.72 169.572L2535.25 205.901C2535.26 206.109 2535.19 206.22 2535.03 206.236ZM2637.21 196.577L2629.99 197.259C2629.83 197.275 2629.73 197.179 2629.71 196.972L2625.61 153.195C2625.59 153.029 2625.69 152.936 2625.9 152.917L2632.99 152.246C2633.2 152.226 2633.31 152.3 2633.32 152.466L2634.91 169.799L2644.46 168.896L2642.81 151.569C2642.8 151.403 2642.87 151.312 2643.04 151.296L2650.13 150.626C2650.34 150.606 2650.45 150.679 2650.47 150.845L2654.76 194.604C2654.78 194.812 2654.68 194.925 2654.48 194.945L2647.32 195.621C2647.11 195.641 2647 195.547 2646.98 195.339L2645.2 176.612L2635.65 177.514L2637.43 196.242C2637.45 196.45 2637.38 196.561 2637.21 196.577ZM2688.4 192.366C2686.14 192.579 2684 192.196 2681.98 191.215C2679.98 190.232 2678.31 188.831 2676.97 187.012C2675.64 185.17 2674.87 183.088 2674.64 180.765L2672.78 160.569C2672.56 158.205 2672.93 156.025 2673.89 154.03C2674.83 152.016 2676.2 150.349 2678 149.028C2679.79 147.686 2681.81 146.909 2684.05 146.697C2686.37 146.478 2688.51 146.851 2690.47 147.817C2692.44 148.781 2694.08 150.175 2695.39 151.998C2696.71 153.798 2697.48 155.87 2697.7 158.213L2699.69 178.398C2699.91 180.72 2699.55 182.899 2698.62 184.934C2697.66 186.991 2696.29 188.69 2694.52 190.03C2692.74 191.369 2690.7 192.148 2688.4 192.366ZM2687.67 184.682C2688.95 184.56 2690.02 183.936 2690.88 182.809C2691.73 181.661 2692.1 180.434 2691.97 179.127L2689.99 158.943C2689.85 157.533 2689.3 156.382 2688.31 155.492C2687.33 154.601 2686.15 154.221 2684.78 154.35C2683.47 154.474 2682.4 155.057 2681.56 156.099C2680.71 157.141 2680.36 158.388 2680.5 159.84L2682.42 180.03C2682.55 181.419 2683.14 182.578 2684.17 183.506C2685.19 184.413 2686.36 184.805 2687.67 184.682ZM2734.52 187.378L2727.34 188.057C2727.15 188.075 2727.05 187.98 2727.03 187.773L2723.57 151.437L2715.29 152.219C2715.09 152.239 2714.97 152.145 2714.95 151.938L2714.34 144.808C2714.32 144.642 2714.4 144.551 2714.56 144.535L2738.77 142.247C2738.99 142.226 2739.12 142.298 2739.13 142.464L2739.81 149.588C2739.83 149.795 2739.76 149.907 2739.59 149.922L2731.22 150.713L2734.74 187.043C2734.76 187.251 2734.69 187.362 2734.52 187.378ZM2836.71 177.719L2829.49 178.401C2829.32 178.417 2829.23 178.321 2829.21 178.113L2825.11 134.337C2825.09 134.171 2825.19 134.078 2825.39 134.058L2832.49 133.388C2832.69 133.368 2832.81 133.441 2832.82 133.607L2834.41 150.941L2843.96 150.038L2842.31 132.71C2842.3 132.544 2842.37 132.454 2842.54 132.438L2849.63 131.767C2849.84 131.748 2849.95 131.821 2849.96 131.987L2854.26 175.746C2854.28 175.953 2854.18 176.067 2853.97 176.087L2846.82 176.763C2846.61 176.783 2846.5 176.689 2846.48 176.481L2844.7 157.753L2835.14 158.656L2836.93 177.384C2836.95 177.591 2836.87 177.703 2836.71 177.719ZM2887.9 173.508C2885.64 173.721 2883.5 173.338 2881.48 172.357C2879.48 171.374 2877.81 169.973 2876.46 168.154C2875.14 166.312 2874.36 164.23 2874.14 161.907L2872.28 141.711C2872.06 139.347 2872.43 137.167 2873.39 135.172C2874.32 133.158 2875.69 131.49 2877.49 130.169C2879.29 128.828 2881.31 128.051 2883.55 127.839C2885.87 127.62 2888.01 127.993 2889.97 128.959C2891.94 129.923 2893.58 131.317 2894.88 133.14C2896.21 134.94 2896.98 137.012 2897.2 139.355L2899.19 159.539C2899.41 161.862 2899.05 164.041 2898.11 166.076C2897.16 168.133 2895.79 169.832 2894.02 171.171C2892.24 172.511 2890.2 173.29 2887.9 173.508ZM2887.17 165.824C2888.45 165.702 2889.52 165.078 2890.38 163.951C2891.23 162.803 2891.6 161.575 2891.47 160.269L2889.49 140.085C2889.35 138.674 2888.79 137.524 2887.81 136.634C2886.82 135.743 2885.65 135.363 2884.28 135.492C2882.97 135.616 2881.9 136.198 2881.05 137.241C2880.21 138.283 2879.86 139.53 2880 140.982L2881.92 161.172C2882.05 162.561 2882.63 163.72 2883.66 164.648C2884.69 165.555 2885.86 165.947 2887.17 165.824ZM2934.02 168.52L2926.84 169.199C2926.65 169.217 2926.55 169.122 2926.53 168.914L2923.07 132.579L2914.79 133.361C2914.58 133.381 2914.47 133.287 2914.45 133.079L2913.83 125.949C2913.82 125.784 2913.89 125.693 2914.06 125.677L2938.26 123.389C2938.49 123.367 2938.61 123.44 2938.63 123.606L2939.31 130.73C2939.33 130.937 2939.26 131.049 2939.09 131.064L2930.72 131.855L2934.24 168.185C2934.26 168.393 2934.19 168.504 2934.02 168.52ZM3036.21 158.861L3028.99 159.543C3028.82 159.559 3028.73 159.463 3028.71 159.255L3024.6 115.479C3024.59 115.313 3024.68 115.22 3024.89 115.2L3031.99 114.53C3032.19 114.51 3032.3 114.583 3032.32 114.749L3033.91 132.083L3043.46 131.18L3041.81 113.852C3041.79 113.686 3041.87 113.596 3042.03 113.58L3049.13 112.909C3049.33 112.89 3049.45 112.963 3049.46 113.129L3053.75 156.888C3053.77 157.095 3053.68 157.209 3053.47 157.228L3046.32 157.905C3046.11 157.924 3046 157.831 3045.98 157.623L3044.19 138.895L3034.64 139.798L3036.42 158.526C3036.44 158.733 3036.37 158.845 3036.21 158.861ZM3087.4 154.649C3085.13 154.863 3083 154.48 3080.98 153.498C3078.98 152.515 3077.31 151.114 3075.96 149.296C3074.64 147.454 3073.86 145.372 3073.64 143.049L3071.78 122.853C3071.56 120.489 3071.92 118.309 3072.88 116.314C3073.82 114.3 3075.19 112.632 3076.99 111.311C3078.79 109.969 3080.81 109.193 3083.05 108.981C3085.37 108.761 3087.51 109.135 3089.46 110.101C3091.44 111.065 3093.08 112.459 3094.38 114.282C3095.7 116.082 3096.48 118.154 3096.7 120.497L3098.69 140.681C3098.91 143.004 3098.55 145.183 3097.61 147.218C3096.66 149.275 3095.29 150.973 3093.51 152.313C3091.74 153.653 3089.7 154.432 3087.4 154.649ZM3086.66 146.965C3087.95 146.844 3089.02 146.22 3089.88 145.092C3090.73 143.944 3091.09 142.717 3090.97 141.411L3088.99 121.227C3088.85 119.816 3088.29 118.666 3087.31 117.775C3086.32 116.885 3085.15 116.504 3083.78 116.634C3082.47 116.757 3081.4 117.34 3080.55 118.383C3079.71 119.425 3079.36 120.672 3079.5 122.124L3081.42 142.314C3081.55 143.703 3082.13 144.862 3083.16 145.79C3084.19 146.697 3085.36 147.089 3086.66 146.965ZM3133.52 149.662L3126.33 150.341C3126.15 150.359 3126.04 150.264 3126.02 150.056L3122.57 113.721L3114.29 114.503C3114.08 114.522 3113.97 114.429 3113.95 114.221L3113.33 107.091C3113.32 106.925 3113.39 106.835 3113.56 106.819L3137.76 104.531C3137.99 104.509 3138.11 104.581 3138.13 104.747L3138.81 111.871C3138.83 112.079 3138.75 112.19 3138.59 112.206L3130.22 112.997L3133.74 149.327C3133.76 149.534 3133.69 149.646 3133.52 149.662ZM3235.7 140.002L3228.49 140.685C3228.32 140.7 3228.23 140.605 3228.21 140.397L3224.1 96.6204C3224.09 96.4545 3224.18 96.3618 3224.39 96.3422L3231.48 95.6716C3231.69 95.652 3231.8 95.7252 3231.82 95.8911L3233.41 113.225L3242.96 112.322L3241.31 94.9941C3241.29 94.8282 3241.37 94.7374 3241.53 94.7217L3248.63 94.0512C3248.83 94.0316 3248.94 94.1048 3248.96 94.2707L3253.25 138.03C3253.27 138.237 3253.18 138.351 3252.97 138.37L3245.82 139.047C3245.61 139.066 3245.49 138.972 3245.47 138.765L3243.69 120.037L3234.14 120.94L3235.92 139.668C3235.94 139.875 3235.87 139.987 3235.7 140.002ZM3286.89 135.791C3284.63 136.005 3282.49 135.621 3280.47 134.64C3278.48 133.657 3276.8 132.256 3275.46 130.437C3274.13 128.596 3273.36 126.513 3273.14 124.191L3271.28 103.995C3271.05 101.63 3271.42 99.4507 3272.38 97.4556C3273.32 95.4417 3274.69 93.7742 3276.49 92.4532C3278.29 91.1114 3280.31 90.3346 3282.55 90.1229C3284.87 89.9033 3287.01 90.2766 3288.96 91.2428C3290.94 92.207 3292.58 93.6006 3293.88 95.4235C3295.2 97.2237 3295.98 99.2956 3296.2 101.639L3298.18 121.823C3298.4 124.146 3298.05 126.325 3297.11 128.359C3296.16 130.417 3294.79 132.115 3293.01 133.455C3291.24 134.795 3289.2 135.574 3286.89 135.791ZM3286.16 128.107C3287.45 127.986 3288.52 127.361 3289.37 126.234C3290.23 125.086 3290.59 123.859 3290.47 122.553L3288.48 102.368C3288.35 100.958 3287.79 99.8078 3286.8 98.9174C3285.82 98.0269 3284.64 97.6464 3283.27 97.7758C3281.97 97.8993 3280.89 98.4822 3280.05 99.5244C3279.21 100.567 3278.86 101.814 3278.99 103.265L3280.92 123.455C3281.05 124.845 3281.63 126.004 3282.66 126.932C3283.69 127.839 3284.86 128.231 3286.16 128.107ZM3333.02 130.803L3325.83 131.483C3325.65 131.5 3325.54 131.406 3325.52 131.198L3322.06 94.8625L3313.79 95.6448C3313.58 95.6644 3313.47 95.5705 3313.45 95.3631L3312.83 88.2332C3312.81 88.0673 3312.89 87.9765 3313.06 87.9608L3337.26 85.6728C3337.49 85.6512 3337.61 85.7234 3337.63 85.8893L3338.3 93.0133C3338.32 93.2207 3338.25 93.3323 3338.09 93.348L3329.72 94.139L3333.24 130.469C3333.26 130.676 3333.18 130.788 3333.02 130.803ZM3435.2 121.144L3427.98 121.827C3427.82 121.842 3427.73 121.746 3427.71 121.539L3423.6 77.7623C3423.58 77.5964 3423.68 77.5037 3423.89 77.4841L3430.98 76.8135C3431.19 76.7939 3431.3 76.8671 3431.32 77.033L3432.9 94.3668L3442.45 93.4639L3440.81 76.136C3440.79 75.9701 3440.86 75.8793 3441.03 75.8636L3448.12 75.1931C3448.33 75.1735 3448.44 75.2467 3448.46 75.4126L3452.75 119.172C3452.77 119.379 3452.68 119.493 3452.47 119.512L3445.31 120.189C3445.11 120.208 3444.99 120.114 3444.97 119.907L3443.19 101.179L3433.64 102.082L3435.42 120.81C3435.44 121.017 3435.37 121.129 3435.2 121.144ZM3486.39 116.933C3484.13 117.147 3481.99 116.763 3479.97 115.782C3477.97 114.799 3476.3 113.398 3474.96 111.579C3473.63 109.738 3472.86 107.655 3472.64 105.332L3470.78 85.1366C3470.55 82.7723 3470.92 80.5926 3471.88 78.5975C3472.82 76.5836 3474.19 74.9161 3475.99 73.595C3477.79 72.2532 3479.8 71.4765 3482.04 71.2647C3484.37 71.0451 3486.51 71.4184 3488.46 72.3846C3490.44 73.3488 3492.08 74.7424 3493.38 76.5653C3494.7 78.3655 3495.47 80.4374 3495.7 82.781L3497.68 102.965C3497.9 105.288 3497.55 107.467 3496.61 109.501C3495.65 111.559 3494.29 113.257 3492.51 114.597C3490.73 115.937 3488.69 116.716 3486.39 116.933ZM3485.66 109.249C3486.95 109.128 3488.02 108.503 3488.87 107.376C3489.73 106.228 3490.09 105.001 3489.97 103.694L3487.98 83.5103C3487.85 82.1 3487.29 80.9497 3486.3 80.0592C3485.32 79.1687 3484.14 78.7882 3482.77 78.9176C3481.47 79.0411 3480.39 79.624 3479.55 80.6663C3478.71 81.7085 3478.35 82.9555 3478.49 84.4073L3480.41 104.597C3480.55 105.987 3481.13 107.146 3482.16 108.074C3483.19 108.981 3484.35 109.373 3485.66 109.249ZM3532.52 111.945L3525.33 112.625C3525.14 112.642 3525.04 112.547 3525.02 112.34L3521.56 76.0044L3513.29 76.7866C3513.08 76.8062 3512.96 76.7123 3512.95 76.5049L3512.33 69.375C3512.31 69.2091 3512.39 69.1183 3512.55 69.1026L3536.76 66.8146C3536.99 66.793 3537.11 66.8652 3537.12 67.0311L3537.8 74.1552C3537.82 74.3626 3537.75 74.4741 3537.58 74.4898L3529.21 75.2809L3532.74 111.611C3532.76 111.818 3532.68 111.93 3532.52 111.945ZM3634.7 102.286L3627.48 102.968C3627.32 102.984 3627.22 102.888 3627.2 102.681L3623.1 58.9042C3623.08 58.7383 3623.18 58.6455 3623.39 58.6259L3630.48 57.9554C3630.69 57.9358 3630.8 58.0089 3630.81 58.1748L3632.4 75.5086L3641.95 74.6058L3640.3 57.2779C3640.29 57.112 3640.36 57.0212 3640.53 57.0055L3647.62 56.335C3647.83 56.3153 3647.94 56.3885 3647.96 56.5544L3652.25 100.313C3652.27 100.521 3652.17 100.634 3651.97 100.654L3644.81 101.33C3644.6 101.35 3644.49 101.256 3644.47 101.049L3642.69 82.3209L3633.14 83.2237L3634.92 101.952C3634.94 102.159 3634.87 102.271 3634.7 102.286ZM3685.89 98.0751C3683.63 98.2888 3681.49 97.9051 3679.47 96.9241C3677.47 95.9411 3675.8 94.5401 3674.46 92.7211C3673.13 90.8794 3672.36 88.7971 3672.14 86.4743L3670.28 66.2785C3670.05 63.9142 3670.42 61.7344 3671.38 59.7393C3672.32 57.7254 3673.69 56.0579 3675.49 54.7369C3677.28 53.3951 3679.3 52.6183 3681.54 52.4066C3683.87 52.187 3686 52.5603 3687.96 53.5265C3689.93 54.4907 3691.57 55.8843 3692.88 57.7072C3694.2 59.5074 3694.97 61.5793 3695.2 63.9228L3697.18 84.1069C3697.4 86.4297 3697.04 88.6085 3696.11 90.6431C3695.15 92.7005 3693.79 94.3991 3692.01 95.7389C3690.23 97.0787 3688.19 97.8575 3685.89 98.0751ZM3685.16 90.3911C3686.44 90.2695 3687.52 89.6452 3688.37 88.518C3689.22 87.3701 3689.59 86.1428 3689.46 84.8362L3687.48 64.6522C3687.35 63.2419 3686.79 62.0915 3685.8 61.201C3684.82 60.3106 3683.64 59.9301 3682.27 60.0595C3680.96 60.183 3679.89 60.7659 3679.05 61.8081C3678.2 62.8504 3677.85 64.0974 3677.99 65.5491L3679.91 85.7391C3680.05 87.1286 3680.63 88.2874 3681.66 89.2154C3682.68 90.1227 3683.85 90.5146 3685.16 90.3911ZM3732.01 93.0872L3724.83 93.7666C3724.64 93.7842 3724.54 93.6894 3724.52 93.482L3721.06 57.1463L3712.78 57.9285C3712.58 57.9481 3712.46 57.8542 3712.44 57.6468L3711.83 50.5169C3711.81 50.351 3711.89 50.2602 3712.05 50.2445L3736.26 47.9565C3736.49 47.9349 3736.61 48.0071 3736.62 48.173L3737.3 55.2971C3737.32 55.5045 3737.25 55.616 3737.08 55.6317L3728.71 56.4228L3732.23 92.7526C3732.25 92.96 3732.18 93.0716 3732.01 93.0872ZM3834.2 83.428L3826.98 84.1103C3826.81 84.126 3826.72 84.0302 3826.7 83.8228L3822.6 40.046C3822.58 39.8801 3822.68 39.7874 3822.88 39.7678L3829.98 39.0972C3830.19 39.0776 3830.3 39.1508 3830.31 39.3167L3831.9 56.6505L3841.45 55.7476L3839.8 38.4197C3839.79 38.2538 3839.86 38.163 3840.03 38.1473L3847.12 37.4768C3847.33 37.4572 3847.44 37.5304 3847.46 37.6963L3851.75 81.4553C3851.77 81.6627 3851.67 81.7762 3851.47 81.7958L3844.31 82.4723C3844.1 82.4919 3843.99 82.398 3843.97 82.1906L3842.19 63.4627L3832.63 64.3656L3834.42 83.0934C3834.44 83.3008 3834.36 83.4124 3834.2 83.428ZM3885.39 79.217C3883.13 79.4307 3880.99 79.047 3878.97 78.066C3876.97 77.083 3875.3 75.682 3873.95 73.863C3872.63 72.0213 3871.85 69.939 3871.63 67.6162L3869.77 47.4204C3869.55 45.0561 3869.92 42.8763 3870.88 40.8812C3871.82 38.8673 3873.18 37.1998 3874.98 35.8788C3876.78 34.537 3878.8 33.7602 3881.04 33.5485C3883.36 33.3289 3885.5 33.7022 3887.46 34.6684C3889.43 35.6326 3891.07 37.0261 3892.38 38.8491C3893.7 40.6493 3894.47 42.7211 3894.69 45.0647L3896.68 65.2488C3896.9 67.5716 3896.54 69.7504 3895.6 71.785C3894.65 73.8424 3893.28 75.541 3891.51 76.8808C3889.73 78.2206 3887.69 78.9993 3885.39 79.217ZM3884.66 71.533C3885.94 71.4114 3887.01 70.7871 3887.87 69.6599C3888.72 68.512 3889.09 67.2847 3888.96 65.9781L3886.98 45.7941C3886.84 44.3838 3886.28 43.2334 3885.3 42.3429C3884.31 41.4525 3883.14 41.072 3881.77 41.2014C3880.46 41.3249 3879.39 41.9078 3878.55 42.95C3877.7 43.9923 3877.35 45.2393 3877.49 46.691L3879.41 66.881C3879.54 68.2705 3880.12 69.4293 3881.15 70.3573C3882.18 71.2646 3883.35 71.6565 3884.66 71.533Z" fill="black"/>
</svg>
