<svg width="70" height="70" viewBox="0 0 70 70" fill="none" xmlns="http://www.w3.org/2000/svg">
<path d="M58.1954 23.1003C58.2309 23.6145 58.2309 24.1288 58.2309 24.6478C58.2309 40.4617 46.1922 58.6999 24.1788 58.6999V58.6904C17.676 58.6999 11.3083 56.8372 5.83398 53.3251C6.77955 53.4388 7.72985 53.4957 8.68252 53.4981C14.0715 53.5028 19.3065 51.6946 23.5461 48.365C18.4249 48.2679 13.9341 44.9288 12.3652 40.054C14.1592 40.4 16.0077 40.3289 17.7684 39.8479C12.1851 38.7198 8.16827 33.8143 8.16827 28.1172C8.16827 28.0651 8.16827 28.0153 8.16827 27.9655C9.83189 28.8922 11.6946 29.4064 13.5999 29.4633C8.34126 25.9488 6.7203 18.9531 9.89587 13.4835C15.9721 20.9603 24.9372 25.5057 34.5611 25.9867C33.5965 21.8301 34.9142 17.4743 38.0234 14.5523C42.8436 10.0212 50.4247 10.2535 54.9558 15.0713C57.6361 14.5428 60.205 13.5594 62.5558 12.1659C61.6624 14.9362 59.7926 17.2895 57.2948 18.7848C59.667 18.5052 61.9847 17.8701 64.1673 16.9008C62.5606 19.3086 60.5367 21.4059 58.1954 23.1003Z" fill="black"/>
</svg>
